<mxfile host="app.diagrams.net" agent="Mozilla/5.0 (Windows NT 10.0; Win64; x64) AppleWebKit/537.36 (KHTML, like Gecko) Chrome/131.0.0.0 Safari/537.36" version="25.0.3">
  <diagram name="第 1 页" id="Mqyg3I50LXbeyDTYfiMp">
    <mxGraphModel dx="2739" dy="984" grid="1" gridSize="10" guides="1" tooltips="1" connect="1" arrows="1" fold="1" page="1" pageScale="1" pageWidth="827" pageHeight="1169" math="0" shadow="0">
      <root>
        <mxCell id="0" />
        <mxCell id="1" parent="0" />
        <mxCell id="pniP_bgZRXdG6m6pNv28-1" value="&lt;font style=&quot;font-size: 30px;&quot;&gt;人員&lt;/font&gt;&lt;div&gt;&lt;font style=&quot;font-size: 30px;&quot;&gt;角色&lt;/font&gt;&lt;/div&gt;" style="whiteSpace=wrap;html=1;aspect=fixed;fontSize=15;" vertex="1" parent="1">
          <mxGeometry x="660" y="830" width="80" height="80" as="geometry" />
        </mxCell>
        <mxCell id="pniP_bgZRXdG6m6pNv28-10" value="&lt;font style=&quot;font-size: 30px;&quot;&gt;員工&lt;/font&gt;" style="whiteSpace=wrap;html=1;aspect=fixed;" vertex="1" parent="1">
          <mxGeometry x="380" y="700" width="80" height="80" as="geometry" />
        </mxCell>
        <mxCell id="pniP_bgZRXdG6m6pNv28-79" style="rounded=0;orthogonalLoop=1;jettySize=auto;html=1;endArrow=none;endFill=0;exitX=0.5;exitY=1;exitDx=0;exitDy=0;" edge="1" parent="1" source="pniP_bgZRXdG6m6pNv28-80" target="pniP_bgZRXdG6m6pNv28-12">
          <mxGeometry relative="1" as="geometry" />
        </mxCell>
        <mxCell id="pniP_bgZRXdG6m6pNv28-83" value="N" style="edgeLabel;html=1;align=center;verticalAlign=middle;resizable=0;points=[];" vertex="1" connectable="0" parent="pniP_bgZRXdG6m6pNv28-79">
          <mxGeometry x="-0.0345" y="2" relative="1" as="geometry">
            <mxPoint x="-1" as="offset" />
          </mxGeometry>
        </mxCell>
        <mxCell id="pniP_bgZRXdG6m6pNv28-95" style="rounded=0;orthogonalLoop=1;jettySize=auto;html=1;entryX=0.5;entryY=0;entryDx=0;entryDy=0;endArrow=none;endFill=0;exitX=1;exitY=0;exitDx=0;exitDy=0;" edge="1" parent="1" source="pniP_bgZRXdG6m6pNv28-11" target="pniP_bgZRXdG6m6pNv28-93">
          <mxGeometry relative="1" as="geometry" />
        </mxCell>
        <mxCell id="pniP_bgZRXdG6m6pNv28-98" value="M" style="edgeLabel;html=1;align=center;verticalAlign=middle;resizable=0;points=[];" vertex="1" connectable="0" parent="pniP_bgZRXdG6m6pNv28-95">
          <mxGeometry x="-0.0123" relative="1" as="geometry">
            <mxPoint as="offset" />
          </mxGeometry>
        </mxCell>
        <mxCell id="pniP_bgZRXdG6m6pNv28-11" value="&lt;font style=&quot;font-size: 30px;&quot;&gt;店面&lt;/font&gt;" style="whiteSpace=wrap;html=1;aspect=fixed;" vertex="1" parent="1">
          <mxGeometry x="1040" y="460" width="80" height="80" as="geometry" />
        </mxCell>
        <mxCell id="pniP_bgZRXdG6m6pNv28-36" style="rounded=0;orthogonalLoop=1;jettySize=auto;html=1;exitX=0;exitY=0.5;exitDx=0;exitDy=0;endArrow=none;endFill=0;" edge="1" parent="1" source="pniP_bgZRXdG6m6pNv28-41" target="pniP_bgZRXdG6m6pNv28-10">
          <mxGeometry relative="1" as="geometry" />
        </mxCell>
        <mxCell id="pniP_bgZRXdG6m6pNv28-43" value="M" style="edgeLabel;html=1;align=center;verticalAlign=middle;resizable=0;points=[];" vertex="1" connectable="0" parent="pniP_bgZRXdG6m6pNv28-36">
          <mxGeometry x="0.0321" y="-1" relative="1" as="geometry">
            <mxPoint as="offset" />
          </mxGeometry>
        </mxCell>
        <mxCell id="pniP_bgZRXdG6m6pNv28-63" style="rounded=0;orthogonalLoop=1;jettySize=auto;html=1;endArrow=none;endFill=0;entryX=0.5;entryY=0;entryDx=0;entryDy=0;" edge="1" parent="1" source="pniP_bgZRXdG6m6pNv28-12" target="pniP_bgZRXdG6m6pNv28-62">
          <mxGeometry relative="1" as="geometry" />
        </mxCell>
        <mxCell id="pniP_bgZRXdG6m6pNv28-64" value="1" style="edgeLabel;html=1;align=center;verticalAlign=middle;resizable=0;points=[];" vertex="1" connectable="0" parent="pniP_bgZRXdG6m6pNv28-63">
          <mxGeometry x="-0.2291" relative="1" as="geometry">
            <mxPoint as="offset" />
          </mxGeometry>
        </mxCell>
        <mxCell id="pniP_bgZRXdG6m6pNv28-70" style="rounded=0;orthogonalLoop=1;jettySize=auto;html=1;entryX=0;entryY=0;entryDx=0;entryDy=0;endArrow=none;endFill=0;exitX=0.5;exitY=1;exitDx=0;exitDy=0;" edge="1" parent="1" source="pniP_bgZRXdG6m6pNv28-72" target="pniP_bgZRXdG6m6pNv28-69">
          <mxGeometry relative="1" as="geometry" />
        </mxCell>
        <mxCell id="pniP_bgZRXdG6m6pNv28-73" value="1" style="edgeLabel;html=1;align=center;verticalAlign=middle;resizable=0;points=[];" vertex="1" connectable="0" parent="pniP_bgZRXdG6m6pNv28-70">
          <mxGeometry x="0.2244" y="1" relative="1" as="geometry">
            <mxPoint as="offset" />
          </mxGeometry>
        </mxCell>
        <mxCell id="pniP_bgZRXdG6m6pNv28-88" style="rounded=0;orthogonalLoop=1;jettySize=auto;html=1;endArrow=none;endFill=0;exitX=0;exitY=0.5;exitDx=0;exitDy=0;" edge="1" parent="1" source="pniP_bgZRXdG6m6pNv28-89" target="pniP_bgZRXdG6m6pNv28-87">
          <mxGeometry relative="1" as="geometry" />
        </mxCell>
        <mxCell id="pniP_bgZRXdG6m6pNv28-92" value="M" style="edgeLabel;html=1;align=center;verticalAlign=middle;resizable=0;points=[];" vertex="1" connectable="0" parent="pniP_bgZRXdG6m6pNv28-88">
          <mxGeometry x="-0.0282" relative="1" as="geometry">
            <mxPoint as="offset" />
          </mxGeometry>
        </mxCell>
        <mxCell id="pniP_bgZRXdG6m6pNv28-12" value="&lt;font style=&quot;font-size: 30px;&quot;&gt;訂單&lt;/font&gt;" style="whiteSpace=wrap;html=1;aspect=fixed;" vertex="1" parent="1">
          <mxGeometry x="550" y="430" width="80" height="80" as="geometry" />
        </mxCell>
        <mxCell id="pniP_bgZRXdG6m6pNv28-65" style="rounded=0;orthogonalLoop=1;jettySize=auto;html=1;entryX=0.5;entryY=1;entryDx=0;entryDy=0;endArrow=none;endFill=0;" edge="1" parent="1" source="pniP_bgZRXdG6m6pNv28-13" target="pniP_bgZRXdG6m6pNv28-62">
          <mxGeometry relative="1" as="geometry" />
        </mxCell>
        <mxCell id="pniP_bgZRXdG6m6pNv28-66" value="1" style="edgeLabel;html=1;align=center;verticalAlign=middle;resizable=0;points=[];" vertex="1" connectable="0" parent="pniP_bgZRXdG6m6pNv28-65">
          <mxGeometry x="-0.1714" relative="1" as="geometry">
            <mxPoint as="offset" />
          </mxGeometry>
        </mxCell>
        <mxCell id="pniP_bgZRXdG6m6pNv28-13" value="&lt;font style=&quot;font-size: 30px;&quot;&gt;發票&lt;/font&gt;" style="whiteSpace=wrap;html=1;aspect=fixed;" vertex="1" parent="1">
          <mxGeometry x="800" y="760" width="80" height="80" as="geometry" />
        </mxCell>
        <mxCell id="pniP_bgZRXdG6m6pNv28-14" value="&lt;font style=&quot;font-size: 30px;&quot;&gt;店面狀態&lt;/font&gt;" style="whiteSpace=wrap;html=1;aspect=fixed;" vertex="1" parent="1">
          <mxGeometry x="1241" y="650" width="80" height="80" as="geometry" />
        </mxCell>
        <mxCell id="pniP_bgZRXdG6m6pNv28-20" value="&lt;font style=&quot;font-size: 20px;&quot;&gt;下&lt;/font&gt;" style="rhombus;whiteSpace=wrap;html=1;" vertex="1" parent="1">
          <mxGeometry x="350" y="400" width="80" height="80" as="geometry" />
        </mxCell>
        <mxCell id="pniP_bgZRXdG6m6pNv28-21" value="&lt;font style=&quot;font-size: 30px;&quot;&gt;會員&lt;/font&gt;" style="whiteSpace=wrap;html=1;aspect=fixed;" vertex="1" parent="1">
          <mxGeometry x="140" y="400" width="80" height="80" as="geometry" />
        </mxCell>
        <mxCell id="pniP_bgZRXdG6m6pNv28-23" value="" style="endArrow=none;html=1;rounded=0;exitX=0.5;exitY=0;exitDx=0;exitDy=0;" edge="1" parent="1" source="pniP_bgZRXdG6m6pNv28-20" target="pniP_bgZRXdG6m6pNv28-21">
          <mxGeometry width="50" height="50" relative="1" as="geometry">
            <mxPoint x="250" y="580" as="sourcePoint" />
            <mxPoint x="300" y="530" as="targetPoint" />
          </mxGeometry>
        </mxCell>
        <mxCell id="pniP_bgZRXdG6m6pNv28-25" value="1" style="edgeLabel;html=1;align=center;verticalAlign=middle;resizable=0;points=[];" vertex="1" connectable="0" parent="pniP_bgZRXdG6m6pNv28-23">
          <mxGeometry x="0.1514" y="1" relative="1" as="geometry">
            <mxPoint as="offset" />
          </mxGeometry>
        </mxCell>
        <mxCell id="pniP_bgZRXdG6m6pNv28-24" value="" style="endArrow=none;html=1;rounded=0;entryX=0.5;entryY=1;entryDx=0;entryDy=0;" edge="1" parent="1" source="pniP_bgZRXdG6m6pNv28-12" target="pniP_bgZRXdG6m6pNv28-20">
          <mxGeometry width="50" height="50" relative="1" as="geometry">
            <mxPoint x="360" y="420" as="sourcePoint" />
            <mxPoint x="280" y="420" as="targetPoint" />
            <Array as="points" />
          </mxGeometry>
        </mxCell>
        <mxCell id="pniP_bgZRXdG6m6pNv28-26" value="M" style="edgeLabel;html=1;align=center;verticalAlign=middle;resizable=0;points=[];" vertex="1" connectable="0" parent="pniP_bgZRXdG6m6pNv28-24">
          <mxGeometry x="-0.2167" y="4" relative="1" as="geometry">
            <mxPoint as="offset" />
          </mxGeometry>
        </mxCell>
        <mxCell id="pniP_bgZRXdG6m6pNv28-32" style="rounded=0;orthogonalLoop=1;jettySize=auto;html=1;endArrow=none;endFill=0;entryX=0;entryY=1;entryDx=0;entryDy=0;" edge="1" parent="1" source="pniP_bgZRXdG6m6pNv28-27" target="pniP_bgZRXdG6m6pNv28-21">
          <mxGeometry relative="1" as="geometry" />
        </mxCell>
        <mxCell id="pniP_bgZRXdG6m6pNv28-27" value="&lt;font style=&quot;font-size: 20px;&quot;&gt;會員編號&lt;/font&gt;" style="ellipse;whiteSpace=wrap;html=1;" vertex="1" parent="1">
          <mxGeometry x="-60" y="370" width="120" height="80" as="geometry" />
        </mxCell>
        <mxCell id="pniP_bgZRXdG6m6pNv28-33" style="rounded=0;orthogonalLoop=1;jettySize=auto;html=1;endArrow=none;endFill=0;entryX=0;entryY=1;entryDx=0;entryDy=0;" edge="1" parent="1" source="pniP_bgZRXdG6m6pNv28-28" target="pniP_bgZRXdG6m6pNv28-21">
          <mxGeometry relative="1" as="geometry" />
        </mxCell>
        <mxCell id="pniP_bgZRXdG6m6pNv28-28" value="&lt;font style=&quot;font-size: 20px;&quot;&gt;姓名&lt;/font&gt;" style="ellipse;whiteSpace=wrap;html=1;" vertex="1" parent="1">
          <mxGeometry x="-60" y="490" width="120" height="80" as="geometry" />
        </mxCell>
        <mxCell id="pniP_bgZRXdG6m6pNv28-30" value="&lt;font style=&quot;font-size: 20px;&quot;&gt;生日&lt;/font&gt;" style="ellipse;whiteSpace=wrap;html=1;" vertex="1" parent="1">
          <mxGeometry x="140" y="595" width="120" height="80" as="geometry" />
        </mxCell>
        <mxCell id="pniP_bgZRXdG6m6pNv28-34" style="rounded=0;orthogonalLoop=1;jettySize=auto;html=1;endArrow=none;endFill=0;entryX=0;entryY=1;entryDx=0;entryDy=0;" edge="1" parent="1" source="pniP_bgZRXdG6m6pNv28-31" target="pniP_bgZRXdG6m6pNv28-21">
          <mxGeometry relative="1" as="geometry" />
        </mxCell>
        <mxCell id="pniP_bgZRXdG6m6pNv28-31" value="&lt;span style=&quot;font-size: 20px;&quot;&gt;電話&lt;/span&gt;" style="ellipse;shape=doubleEllipse;margin=3;whiteSpace=wrap;html=1;align=center;" vertex="1" parent="1">
          <mxGeometry x="-20" y="595" width="130" height="75" as="geometry" />
        </mxCell>
        <mxCell id="pniP_bgZRXdG6m6pNv28-35" style="rounded=0;orthogonalLoop=1;jettySize=auto;html=1;endArrow=none;endFill=0;entryX=0;entryY=1;entryDx=0;entryDy=0;" edge="1" parent="1" source="pniP_bgZRXdG6m6pNv28-30" target="pniP_bgZRXdG6m6pNv28-21">
          <mxGeometry relative="1" as="geometry" />
        </mxCell>
        <mxCell id="pniP_bgZRXdG6m6pNv28-40" value="" style="rounded=0;orthogonalLoop=1;jettySize=auto;html=1;exitX=0.5;exitY=1;exitDx=0;exitDy=0;endArrow=none;endFill=0;entryX=1;entryY=0.5;entryDx=0;entryDy=0;" edge="1" parent="1" source="pniP_bgZRXdG6m6pNv28-12" target="pniP_bgZRXdG6m6pNv28-41">
          <mxGeometry relative="1" as="geometry">
            <mxPoint x="590" y="510" as="sourcePoint" />
            <mxPoint x="397" y="720" as="targetPoint" />
          </mxGeometry>
        </mxCell>
        <mxCell id="pniP_bgZRXdG6m6pNv28-42" value="N" style="edgeLabel;html=1;align=center;verticalAlign=middle;resizable=0;points=[];" vertex="1" connectable="0" parent="pniP_bgZRXdG6m6pNv28-40">
          <mxGeometry x="-0.0475" y="-1" relative="1" as="geometry">
            <mxPoint as="offset" />
          </mxGeometry>
        </mxCell>
        <mxCell id="pniP_bgZRXdG6m6pNv28-41" value="&lt;font style=&quot;font-size: 20px;&quot;&gt;處理&lt;/font&gt;" style="rhombus;whiteSpace=wrap;html=1;" vertex="1" parent="1">
          <mxGeometry x="500" y="595" width="80" height="80" as="geometry" />
        </mxCell>
        <mxCell id="pniP_bgZRXdG6m6pNv28-45" style="rounded=0;orthogonalLoop=1;jettySize=auto;html=1;endArrow=none;endFill=0;entryX=0;entryY=1;entryDx=0;entryDy=0;" edge="1" parent="1" source="pniP_bgZRXdG6m6pNv28-44" target="pniP_bgZRXdG6m6pNv28-10">
          <mxGeometry relative="1" as="geometry" />
        </mxCell>
        <mxCell id="pniP_bgZRXdG6m6pNv28-44" value="&lt;font style=&quot;font-size: 20px;&quot;&gt;生日&lt;/font&gt;" style="ellipse;whiteSpace=wrap;html=1;" vertex="1" parent="1">
          <mxGeometry x="367" y="960" width="120" height="80" as="geometry" />
        </mxCell>
        <mxCell id="pniP_bgZRXdG6m6pNv28-47" style="rounded=0;orthogonalLoop=1;jettySize=auto;html=1;endArrow=none;endFill=0;entryX=0;entryY=1;entryDx=0;entryDy=0;" edge="1" parent="1" source="pniP_bgZRXdG6m6pNv28-46" target="pniP_bgZRXdG6m6pNv28-10">
          <mxGeometry relative="1" as="geometry" />
        </mxCell>
        <mxCell id="pniP_bgZRXdG6m6pNv28-46" value="&lt;font style=&quot;font-size: 20px;&quot;&gt;員工編號&lt;/font&gt;" style="ellipse;whiteSpace=wrap;html=1;" vertex="1" parent="1">
          <mxGeometry x="110" y="710" width="120" height="80" as="geometry" />
        </mxCell>
        <mxCell id="pniP_bgZRXdG6m6pNv28-49" style="rounded=0;orthogonalLoop=1;jettySize=auto;html=1;endArrow=none;endFill=0;entryX=0;entryY=1;entryDx=0;entryDy=0;" edge="1" parent="1" source="pniP_bgZRXdG6m6pNv28-48" target="pniP_bgZRXdG6m6pNv28-10">
          <mxGeometry relative="1" as="geometry" />
        </mxCell>
        <mxCell id="pniP_bgZRXdG6m6pNv28-48" value="&lt;font style=&quot;font-size: 20px;&quot;&gt;姓名&lt;/font&gt;" style="ellipse;whiteSpace=wrap;html=1;" vertex="1" parent="1">
          <mxGeometry x="110" y="820" width="120" height="80" as="geometry" />
        </mxCell>
        <mxCell id="pniP_bgZRXdG6m6pNv28-51" value="&lt;span style=&quot;font-size: 20px;&quot;&gt;電話&lt;/span&gt;" style="ellipse;whiteSpace=wrap;html=1;" vertex="1" parent="1">
          <mxGeometry x="190" y="920" width="120" height="80" as="geometry" />
        </mxCell>
        <mxCell id="pniP_bgZRXdG6m6pNv28-52" style="rounded=0;orthogonalLoop=1;jettySize=auto;html=1;entryX=0;entryY=1;entryDx=0;entryDy=0;endArrow=none;endFill=0;" edge="1" parent="1" source="pniP_bgZRXdG6m6pNv28-51" target="pniP_bgZRXdG6m6pNv28-10">
          <mxGeometry relative="1" as="geometry" />
        </mxCell>
        <mxCell id="pniP_bgZRXdG6m6pNv28-54" style="rounded=0;orthogonalLoop=1;jettySize=auto;html=1;exitX=0.5;exitY=1;exitDx=0;exitDy=0;endArrow=none;endFill=0;" edge="1" parent="1" source="pniP_bgZRXdG6m6pNv28-53" target="pniP_bgZRXdG6m6pNv28-1">
          <mxGeometry relative="1" as="geometry" />
        </mxCell>
        <mxCell id="pniP_bgZRXdG6m6pNv28-55" style="rounded=0;orthogonalLoop=1;jettySize=auto;html=1;endArrow=none;endFill=0;exitX=0.5;exitY=0;exitDx=0;exitDy=0;" edge="1" parent="1" source="pniP_bgZRXdG6m6pNv28-53" target="pniP_bgZRXdG6m6pNv28-10">
          <mxGeometry relative="1" as="geometry" />
        </mxCell>
        <mxCell id="pniP_bgZRXdG6m6pNv28-53" value="&lt;font style=&quot;font-size: 20px;&quot;&gt;屬於&lt;/font&gt;" style="rhombus;whiteSpace=wrap;html=1;" vertex="1" parent="1">
          <mxGeometry x="530" y="750" width="80" height="80" as="geometry" />
        </mxCell>
        <mxCell id="pniP_bgZRXdG6m6pNv28-57" style="rounded=0;orthogonalLoop=1;jettySize=auto;html=1;entryX=0;entryY=1;entryDx=0;entryDy=0;endArrow=none;endFill=0;" edge="1" parent="1" source="pniP_bgZRXdG6m6pNv28-56" target="pniP_bgZRXdG6m6pNv28-1">
          <mxGeometry relative="1" as="geometry" />
        </mxCell>
        <mxCell id="pniP_bgZRXdG6m6pNv28-56" value="&lt;font style=&quot;font-size: 20px;&quot;&gt;角色名稱&lt;/font&gt;" style="ellipse;whiteSpace=wrap;html=1;" vertex="1" parent="1">
          <mxGeometry x="660" y="1000" width="120" height="80" as="geometry" />
        </mxCell>
        <mxCell id="pniP_bgZRXdG6m6pNv28-59" style="rounded=0;orthogonalLoop=1;jettySize=auto;html=1;entryX=0;entryY=1;entryDx=0;entryDy=0;endArrow=none;endFill=0;" edge="1" parent="1" source="pniP_bgZRXdG6m6pNv28-58" target="pniP_bgZRXdG6m6pNv28-1">
          <mxGeometry relative="1" as="geometry" />
        </mxCell>
        <mxCell id="pniP_bgZRXdG6m6pNv28-58" value="&lt;font style=&quot;font-size: 20px;&quot;&gt;角色代碼&lt;/font&gt;" style="ellipse;whiteSpace=wrap;html=1;" vertex="1" parent="1">
          <mxGeometry x="520" y="990" width="120" height="80" as="geometry" />
        </mxCell>
        <mxCell id="pniP_bgZRXdG6m6pNv28-62" value="&lt;font style=&quot;font-size: 20px;&quot;&gt;有&lt;/font&gt;" style="rhombus;whiteSpace=wrap;html=1;" vertex="1" parent="1">
          <mxGeometry x="690" y="650" width="80" height="80" as="geometry" />
        </mxCell>
        <mxCell id="pniP_bgZRXdG6m6pNv28-68" style="rounded=0;orthogonalLoop=1;jettySize=auto;html=1;endArrow=none;endFill=0;entryX=1;entryY=1;entryDx=0;entryDy=0;" edge="1" parent="1" source="pniP_bgZRXdG6m6pNv28-67" target="pniP_bgZRXdG6m6pNv28-13">
          <mxGeometry relative="1" as="geometry" />
        </mxCell>
        <mxCell id="pniP_bgZRXdG6m6pNv28-67" value="&lt;span style=&quot;font-size: 20px;&quot;&gt;發票號碼&lt;/span&gt;" style="ellipse;whiteSpace=wrap;html=1;" vertex="1" parent="1">
          <mxGeometry x="840" y="990" width="120" height="80" as="geometry" />
        </mxCell>
        <mxCell id="pniP_bgZRXdG6m6pNv28-69" value="&lt;font style=&quot;font-size: 30px;&quot;&gt;支付方式&lt;/font&gt;" style="whiteSpace=wrap;html=1;aspect=fixed;" vertex="1" parent="1">
          <mxGeometry x="950" y="740" width="80" height="80" as="geometry" />
        </mxCell>
        <mxCell id="pniP_bgZRXdG6m6pNv28-71" value="" style="rounded=0;orthogonalLoop=1;jettySize=auto;html=1;entryX=0.5;entryY=0;entryDx=0;entryDy=0;endArrow=none;endFill=0;" edge="1" parent="1" source="pniP_bgZRXdG6m6pNv28-12" target="pniP_bgZRXdG6m6pNv28-72">
          <mxGeometry relative="1" as="geometry">
            <mxPoint x="630" y="484" as="sourcePoint" />
            <mxPoint x="900" y="580" as="targetPoint" />
          </mxGeometry>
        </mxCell>
        <mxCell id="pniP_bgZRXdG6m6pNv28-74" value="M" style="edgeLabel;html=1;align=center;verticalAlign=middle;resizable=0;points=[];" vertex="1" connectable="0" parent="pniP_bgZRXdG6m6pNv28-71">
          <mxGeometry x="-0.1674" y="-4" relative="1" as="geometry">
            <mxPoint as="offset" />
          </mxGeometry>
        </mxCell>
        <mxCell id="pniP_bgZRXdG6m6pNv28-72" value="&lt;font style=&quot;font-size: 20px;&quot;&gt;屬於&lt;/font&gt;" style="rhombus;whiteSpace=wrap;html=1;" vertex="1" parent="1">
          <mxGeometry x="800" y="570" width="80" height="80" as="geometry" />
        </mxCell>
        <mxCell id="pniP_bgZRXdG6m6pNv28-77" style="rounded=0;orthogonalLoop=1;jettySize=auto;html=1;entryX=1;entryY=1;entryDx=0;entryDy=0;endArrow=none;endFill=0;" edge="1" parent="1" source="pniP_bgZRXdG6m6pNv28-75" target="pniP_bgZRXdG6m6pNv28-69">
          <mxGeometry relative="1" as="geometry" />
        </mxCell>
        <mxCell id="pniP_bgZRXdG6m6pNv28-75" value="&lt;span style=&quot;font-size: 20px;&quot;&gt;支付代碼&lt;/span&gt;" style="ellipse;whiteSpace=wrap;html=1;" vertex="1" parent="1">
          <mxGeometry x="1000" y="950" width="120" height="80" as="geometry" />
        </mxCell>
        <mxCell id="pniP_bgZRXdG6m6pNv28-78" style="rounded=0;orthogonalLoop=1;jettySize=auto;html=1;entryX=1;entryY=1;entryDx=0;entryDy=0;endArrow=none;endFill=0;" edge="1" parent="1" source="pniP_bgZRXdG6m6pNv28-76" target="pniP_bgZRXdG6m6pNv28-69">
          <mxGeometry relative="1" as="geometry" />
        </mxCell>
        <mxCell id="pniP_bgZRXdG6m6pNv28-76" value="&lt;span style=&quot;font-size: 20px;&quot;&gt;支付方式種類&lt;/span&gt;" style="ellipse;whiteSpace=wrap;html=1;" vertex="1" parent="1">
          <mxGeometry x="1140" y="860" width="120" height="80" as="geometry" />
        </mxCell>
        <mxCell id="pniP_bgZRXdG6m6pNv28-81" value="" style="rounded=0;orthogonalLoop=1;jettySize=auto;html=1;endArrow=none;endFill=0;entryX=0.5;entryY=0;entryDx=0;entryDy=0;exitX=-0.037;exitY=0.9;exitDx=0;exitDy=0;exitPerimeter=0;" edge="1" parent="1" source="pniP_bgZRXdG6m6pNv28-11" target="pniP_bgZRXdG6m6pNv28-80">
          <mxGeometry relative="1" as="geometry">
            <mxPoint x="800" y="386" as="sourcePoint" />
            <mxPoint x="630" y="454" as="targetPoint" />
          </mxGeometry>
        </mxCell>
        <mxCell id="pniP_bgZRXdG6m6pNv28-84" value="M" style="edgeLabel;html=1;align=center;verticalAlign=middle;resizable=0;points=[];" vertex="1" connectable="0" parent="pniP_bgZRXdG6m6pNv28-81">
          <mxGeometry x="-0.1274" y="-1" relative="1" as="geometry">
            <mxPoint as="offset" />
          </mxGeometry>
        </mxCell>
        <mxCell id="pniP_bgZRXdG6m6pNv28-80" value="&lt;font style=&quot;font-size: 20px;&quot;&gt;包含&lt;/font&gt;" style="rhombus;whiteSpace=wrap;html=1;" vertex="1" parent="1">
          <mxGeometry x="810" y="460" width="80" height="80" as="geometry" />
        </mxCell>
        <mxCell id="pniP_bgZRXdG6m6pNv28-86" style="rounded=0;orthogonalLoop=1;jettySize=auto;html=1;endArrow=none;endFill=0;entryX=1;entryY=0;entryDx=0;entryDy=0;" edge="1" parent="1" source="pniP_bgZRXdG6m6pNv28-85" target="pniP_bgZRXdG6m6pNv28-12">
          <mxGeometry relative="1" as="geometry">
            <mxPoint x="1030" y="420" as="targetPoint" />
          </mxGeometry>
        </mxCell>
        <mxCell id="pniP_bgZRXdG6m6pNv28-85" value="&lt;font style=&quot;font-size: 20px;&quot;&gt;預定人數&lt;/font&gt;" style="ellipse;whiteSpace=wrap;html=1;" vertex="1" parent="1">
          <mxGeometry x="500" y="160" width="120" height="80" as="geometry" />
        </mxCell>
        <mxCell id="pniP_bgZRXdG6m6pNv28-87" value="&lt;span style=&quot;font-size: 30px;&quot;&gt;餐點&lt;/span&gt;" style="whiteSpace=wrap;html=1;aspect=fixed;" vertex="1" parent="1">
          <mxGeometry x="240" y="180" width="80" height="80" as="geometry" />
        </mxCell>
        <mxCell id="pniP_bgZRXdG6m6pNv28-90" value="" style="rounded=0;orthogonalLoop=1;jettySize=auto;html=1;endArrow=none;endFill=0;entryX=1;entryY=0.5;entryDx=0;entryDy=0;" edge="1" parent="1" source="pniP_bgZRXdG6m6pNv28-12" target="pniP_bgZRXdG6m6pNv28-89">
          <mxGeometry relative="1" as="geometry">
            <mxPoint x="615" y="430" as="sourcePoint" />
            <mxPoint x="715" y="270" as="targetPoint" />
          </mxGeometry>
        </mxCell>
        <mxCell id="pniP_bgZRXdG6m6pNv28-91" value="N" style="edgeLabel;html=1;align=center;verticalAlign=middle;resizable=0;points=[];" vertex="1" connectable="0" parent="pniP_bgZRXdG6m6pNv28-90">
          <mxGeometry x="-0.1728" y="-3" relative="1" as="geometry">
            <mxPoint as="offset" />
          </mxGeometry>
        </mxCell>
        <mxCell id="pniP_bgZRXdG6m6pNv28-89" value="&lt;span style=&quot;font-size: 20px;&quot;&gt;包含&lt;/span&gt;" style="rhombus;whiteSpace=wrap;html=1;" vertex="1" parent="1">
          <mxGeometry x="440" y="290" width="80" height="80" as="geometry" />
        </mxCell>
        <mxCell id="pniP_bgZRXdG6m6pNv28-93" value="&lt;font style=&quot;font-size: 20px;&quot;&gt;有&lt;/font&gt;" style="rhombus;whiteSpace=wrap;html=1;" vertex="1" parent="1">
          <mxGeometry x="980" y="620" width="80" height="80" as="geometry" />
        </mxCell>
        <mxCell id="pniP_bgZRXdG6m6pNv28-94" style="rounded=0;orthogonalLoop=1;jettySize=auto;html=1;endArrow=none;endFill=0;entryX=0.5;entryY=1;entryDx=0;entryDy=0;exitX=0;exitY=1;exitDx=0;exitDy=0;" edge="1" parent="1" source="pniP_bgZRXdG6m6pNv28-14" target="pniP_bgZRXdG6m6pNv28-93">
          <mxGeometry relative="1" as="geometry">
            <mxPoint x="860" y="250" as="targetPoint" />
          </mxGeometry>
        </mxCell>
        <mxCell id="pniP_bgZRXdG6m6pNv28-99" value="1" style="edgeLabel;html=1;align=center;verticalAlign=middle;resizable=0;points=[];" vertex="1" connectable="0" parent="pniP_bgZRXdG6m6pNv28-94">
          <mxGeometry x="-0.0753" y="3" relative="1" as="geometry">
            <mxPoint x="1" as="offset" />
          </mxGeometry>
        </mxCell>
        <mxCell id="pniP_bgZRXdG6m6pNv28-104" style="rounded=0;orthogonalLoop=1;jettySize=auto;html=1;endArrow=none;endFill=0;entryX=1;entryY=0;entryDx=0;entryDy=0;" edge="1" parent="1" source="pniP_bgZRXdG6m6pNv28-101" target="pniP_bgZRXdG6m6pNv28-14">
          <mxGeometry relative="1" as="geometry" />
        </mxCell>
        <mxCell id="pniP_bgZRXdG6m6pNv28-101" value="&lt;span style=&quot;font-size: 20px;&quot;&gt;狀態種類&lt;/span&gt;" style="ellipse;whiteSpace=wrap;html=1;" vertex="1" parent="1">
          <mxGeometry x="1370" y="220" width="120" height="80" as="geometry" />
        </mxCell>
        <mxCell id="pniP_bgZRXdG6m6pNv28-103" style="rounded=0;orthogonalLoop=1;jettySize=auto;html=1;endArrow=none;endFill=0;entryX=1;entryY=0;entryDx=0;entryDy=0;" edge="1" parent="1" source="pniP_bgZRXdG6m6pNv28-102" target="pniP_bgZRXdG6m6pNv28-14">
          <mxGeometry relative="1" as="geometry" />
        </mxCell>
        <mxCell id="pniP_bgZRXdG6m6pNv28-102" value="&lt;font style=&quot;font-size: 20px;&quot;&gt;狀態代碼&lt;/font&gt;" style="ellipse;whiteSpace=wrap;html=1;" vertex="1" parent="1">
          <mxGeometry x="1360" y="110" width="120" height="80" as="geometry" />
        </mxCell>
        <mxCell id="pniP_bgZRXdG6m6pNv28-107" style="rounded=0;orthogonalLoop=1;jettySize=auto;html=1;entryX=1;entryY=0;entryDx=0;entryDy=0;endArrow=none;endFill=0;" edge="1" parent="1" source="pniP_bgZRXdG6m6pNv28-106" target="pniP_bgZRXdG6m6pNv28-12">
          <mxGeometry relative="1" as="geometry" />
        </mxCell>
        <mxCell id="pniP_bgZRXdG6m6pNv28-106" value="&lt;font style=&quot;font-size: 20px;&quot;&gt;預定時間&lt;/font&gt;" style="ellipse;whiteSpace=wrap;html=1;" vertex="1" parent="1">
          <mxGeometry x="660" y="160" width="120" height="80" as="geometry" />
        </mxCell>
        <mxCell id="pniP_bgZRXdG6m6pNv28-108" value="&lt;font style=&quot;font-size: 20px;&quot;&gt;預定時間&lt;/font&gt;" style="ellipse;whiteSpace=wrap;html=1;" vertex="1" parent="1">
          <mxGeometry x="800" y="190" width="120" height="80" as="geometry" />
        </mxCell>
      </root>
    </mxGraphModel>
  </diagram>
</mxfile>
